# xmcd CD database file
#
# Track frame offsets:
#	150
#	33775
#	54145
#	78516
#	100835
#	129441
#	156830
#	176017
#	195239
#	214373
#
# Disc length: 3168 seconds
#
# Revision: 0
# Processed by: cddbd v1.5PL3 Copyright (c) Steve Scherf et al.
# Submitted via: CDex 1.51
#
DISCID=780c5e0a
DTITLE=VIRTUAL JAZZ REALITY - SPACE and CONSEQUENCE
DYEAR=2002
DGENRE=Jazz
TTITLE0=Pour on the juice
TTITLE1=My little brown book
TTITLE2=African mist
TTITLE3=It's just coco
TTITLE4=Monty's lament
TTITLE5=Kinara's dance
TTITLE6=Postage paid
TTITLE7=Nuthouse jam
TTITLE8=Simply that
TTITLE9=Space and consequence
EXTD=YEAR: 2002
EXTT0=
EXTT1=
EXTT2=
EXTT3=
EXTT4=
EXTT5=
EXTT6=
EXTT7=
EXTT8=
EXTT9=
PLAYORDER=
